<svg xmlns="http://www.w3.org/2000/svg" viewBox="0 0 1560 650">
  <defs>
    <linearGradient id="sky" x1="0" y1="0" x2="0" y2="1">
      <stop offset="0" stop-color="#b9dcf5"/>
      <stop offset="0.55" stop-color="#d8ecfa"/>
      <stop offset="1" stop-color="#f2faff"/>
    </linearGradient>
    <g id="pup" stroke-linejoin="round" stroke-linecap="round">
      <g fill="#ffffff" fill-opacity="0.95" stroke="#a9cdec" stroke-width="2.5">
        <ellipse cx="75" cy="100" rx="55" ry="18"/>
        <ellipse cx="42" cy="92" rx="24" ry="12"/>
        <ellipse cx="108" cy="92" rx="26" ry="12"/>
      </g>
      <ellipse cx="30" cy="50" rx="27" ry="12" fill="#fffdf1" stroke="#9fc4e4" stroke-width="2.5" transform="rotate(18 30 50)"/>
      <ellipse cx="120" cy="50" rx="27" ry="12" fill="#fffdf1" stroke="#9fc4e4" stroke-width="2.5" transform="rotate(-18 120 50)"/>
      <circle cx="75" cy="48" r="30" fill="#fffdf1" stroke="#9fc4e4" stroke-width="2.5"/>
      <ellipse cx="63" cy="46" rx="3" ry="4.8" fill="#5d84b8"/>
      <ellipse cx="87" cy="46" rx="3" ry="4.8" fill="#5d84b8"/>
      <path d="M70 56 q2.5 3.5 5 0 q2.5 3.5 5 0" stroke="#6b7b8c" stroke-width="2" fill="none"/>
      <ellipse cx="50" cy="55" rx="6.5" ry="4.5" fill="#f9ccd6"/>
      <ellipse cx="100" cy="55" rx="6.5" ry="4.5" fill="#f9ccd6"/>
      <path d="M57 74 q18 10 36 0" stroke="#8fc3ee" stroke-width="5" fill="none"/>
    </g>
    <path id="star5" d="M0 -12 L2.8 -3.8 L11.4 -3.7 L4.5 1.5 L7 9.7 L0 4.8 L-7 9.7 L-4.5 1.5 L-11.4 -3.7 L-2.8 -3.8 Z"/>
  </defs>

  <rect width="1560" height="650" fill="url(#sky)"/>

  <g fill="#ffffff" fill-opacity="0.5">
    <g><circle cx="150" cy="150" r="26"/><circle cx="190" cy="140" r="34"/><circle cx="232" cy="152" r="22"/><ellipse cx="195" cy="158" rx="62" ry="14"/></g>
    <g><circle cx="620" cy="110" r="22"/><circle cx="655" cy="102" r="28"/><circle cx="690" cy="112" r="19"/><ellipse cx="655" cy="117" rx="52" ry="12"/></g>
    <g><circle cx="1420" cy="170" r="24"/><circle cx="1458" cy="160" r="30"/><circle cx="1494" cy="172" r="20"/><ellipse cx="1458" cy="177" rx="56" ry="13"/></g>
    <g><circle cx="420" cy="300" r="18"/><circle cx="450" cy="293" r="23"/><ellipse cx="440" cy="306" rx="42" ry="10"/></g>
    <g><circle cx="900" cy="260" r="16"/><circle cx="926" cy="254" r="20"/><ellipse cx="915" cy="265" rx="37" ry="9"/></g>
  </g>

  <g fill="#f6e27a" stroke="#e3c94e" stroke-width="1.5" stroke-linejoin="round">
    <use href="#star5" transform="translate(320,90) scale(1.1)"/>
    <use href="#star5" transform="translate(780,70) scale(0.8)"/>
    <use href="#star5" transform="translate(1350,100) scale(1.0)"/>
    <use href="#star5" transform="translate(560,380) scale(0.9)"/>
  </g>
  <g fill="none" stroke-linejoin="round">
    <use href="#star5" transform="translate(500,180) scale(0.7)" stroke="#f2b8cb" stroke-width="2"/>
    <use href="#star5" transform="translate(1180,80) scale(0.6)" stroke="#a3c8e6" stroke-width="2"/>
    <use href="#star5" transform="translate(980,420) scale(0.65)" stroke="#f2b8cb" stroke-width="2"/>
    <use href="#star5" transform="translate(180,300) scale(0.6)" stroke="#a3c8e6" stroke-width="2"/>
  </g>

  <g fill="#ffffff" fill-opacity="0.9">
    <ellipse cx="180" cy="645" rx="330" ry="95"/>
    <ellipse cx="520" cy="665" rx="390" ry="105"/>
    <ellipse cx="900" cy="655" rx="370" ry="100"/>
    <ellipse cx="1290" cy="660" rx="390" ry="110"/>
    <ellipse cx="1520" cy="645" rx="270" ry="85"/>
    <circle cx="300" cy="595" r="58"/>
    <circle cx="480" cy="610" r="50"/>
    <circle cx="760" cy="600" r="66"/>
    <circle cx="1150" cy="600" r="62"/>
    <circle cx="1440" cy="615" r="52"/>
  </g>

  <use href="#pup" transform="translate(1020,215) scale(2.5)"/>
  <use href="#pup" transform="translate(300,400) scale(1.6) rotate(-4 75 62)"/>
</svg>
